# xmcd
#
# Track frame offsets:
#	150
#	10562
#	23337
#	34962
#	48712
#	60487
#	74862
#	86512
#	97925
#	109800
#	122225
#	132812
#	142812
#	160350
#	174075
#	189312
#	199962
#	212062
#	224337
#	237062
#	252562
#	266125
#	280937
#	292775
#
# Disc length: 4071 seconds
#
# Revision: 1
# Processed by: cddbd v1.4PL0 Copyright (c) Steve Scherf et al.
# Submitted via: audiograbber 1.81.00
#
DISCID=5b0fe518
DTITLE=Jody Miller - cd - Anthology
DYEAR=1900
DGENRE=Country
TTITLE0=Queen Of The House
TTITLE1=Home Of The Brave
TTITLE2=Look At Mine
TTITLE3=If You Think I Love You Now
TTITLE4=He's So Fine
TTITLE5=Baby I'm Yours
TTITLE6=Be My Baby
TTITLE7=Let's All Go Down To The River
TTITLE8=There's A Party Goin' On
TTITLE9=To Know His Is To Love Him
TTITLE10=Good News
TTITLE11=Darling You Can Always Come Back Home
TTITLE12=The House Of The Rising Sun
TTITLE13=Reflections
TTITLE14=Natural Woman
TTITLE15=Country Girl
TTITLE16=Will You Love Me Tomorrow
TTITLE17=Ashes Of Love
TTITLE18=When The New Wears Off Our Love
TTITLE19=Roll Me In The Water
TTITLE20=Kiss Away
TTITLE21=Long Black Limousine
TTITLE22=He Walks Like A Man
TTITLE23=Spread A Little Love Around
EXTD=
EXTT0=
EXTT1=
EXTT2=
EXTT3=
EXTT4=
EXTT5=
EXTT6=
EXTT7=
EXTT8=
EXTT9=
EXTT10=
EXTT11=
EXTT12=
EXTT13=
EXTT14=
EXTT15=
EXTT16=
EXTT17=
EXTT18=
EXTT19=
EXTT20=
EXTT21=
EXTT22=
EXTT23=
PLAYORDER=
